<svg xmlns="http://www.w3.org/2000/svg" viewBox="0 0 1143.83 166"><defs><style>.cls-1{fill:#ef6932;}</style></defs><g id="Layer_2" data-name="Layer 2"><g id="Layer_1-2" data-name="Layer 1"><path class="cls-1" d="M143.9,27.62V166H118.12V95.76H25.78V166H0V70H118.12V33.41q0-7.62-13.42-7.63H0q0-14.21,8.94-20T36,0h71.82Q143.9,0,143.9,27.62Z"/><path class="cls-1" d="M485.36,27.62V166H459.58V95.76H367.24V166H341.46V70H459.58V33.41q0-7.62-13.41-7.63H341.46q0-14.21,9-20T377.5,0h71.82Q485.37,0,485.36,27.62Z"/><path class="cls-1" d="M647.94,97.6v40.51q0,27.9-36,27.89H512.46V140.22h96.28q13.43,0,13.42-7.89V102.86q0-7.1-13.42-7.1H546.92q-34.73,0-34.73-27.36V27.89q0-27.88,36-27.89h99.71V25.78H551.39Q538,25.78,538,33.67V63.14Q538,70,551.39,70h61.82Q647.93,70.51,647.94,97.6Z"/><polygon class="cls-1" points="818.67 0 674.77 0 674.77 25.78 733.7 25.78 733.7 166 759.75 166 759.75 25.78 818.67 25.78 818.67 0"/><path class="cls-1" d="M881.54,166q-36,0-36-27.62V27.62Q845.5,0,881.54,0h99.71V25.78H884.7q-12.88,0-13.42,6.84V70h110V95.76h-110v37.62q.53,6.84,13.42,6.84h96.55V166Z"/><path class="cls-1" d="M1044.12,166q-36,0-36-27.62V27.62q0-27.61,36-27.62h99.71V25.78h-96.55q-12.9,0-13.42,6.84V133.38q.53,6.84,13.42,6.84h96.55V166Z"/><path class="cls-1" d="M170.73,166V0H278.59q36,0,36,27.89V138.38q0,27.62-36,27.62m-82.35-26,79.19.23q13.43,0,13.42-7.63V33.67q0-7.89-13.42-7.89H196.51"/></g></g></svg>